<svg xmlns="http://www.w3.org/2000/svg" viewBox="0 0 256 256">
  <rect width="256" height="256" fill="#0f0f13" rx="32"/>
  <circle cx="148" cy="38" r="22" fill="white"/>
  <rect x="140" y="57" width="16" height="14" rx="4" fill="white"/>
  <path d="M108 72 Q128 68 148 70 Q168 72 182 70 L186 142 Q165 150 148 148 Q131 150 110 142 Z" fill="white"/>
  <path d="M115 88 Q90 118 62 168 Q57 178 62 185 Q68 192 76 186 Q82 180 88 165 Q115 118 138 94 Z" fill="white"/>
  <path d="M175 80 Q198 55 218 36 Q226 28 234 30 Q242 34 240 44 Q236 52 226 56 Q208 68 188 96 Z" fill="white"/>
  <path d="M116 144 Q106 188 100 228 Q98 238 106 243 Q114 247 120 240 Q126 232 130 192 Q140 152 148 148 Z" fill="white"/>
  <path d="M150 148 Q162 190 174 228 Q178 240 188 242 Q198 244 202 234 Q206 224 200 212 Q184 172 170 146 Z" fill="white"/>
  <ellipse cx="104" cy="246" rx="18" ry="8" fill="white"/>
  <ellipse cx="194" cy="238" rx="20" ry="8" fill="white"/>
  <rect x="46" y="148" width="7" height="92" rx="3" fill="white" transform="rotate(-18, 49, 194)"/>
  <rect x="26" y="224" width="34" height="10" rx="3" fill="white" transform="rotate(-18, 43, 229)"/>
  <line x1="20" y1="234" x2="10" y2="254" stroke="white" stroke-width="3.5" stroke-linecap="round" transform="rotate(-18, 43, 229)"/>
  <line x1="28" y1="236" x2="22" y2="257" stroke="white" stroke-width="3.5" stroke-linecap="round" transform="rotate(-18, 43, 229)"/>
  <line x1="36" y1="237" x2="34" y2="258" stroke="white" stroke-width="3.5" stroke-linecap="round" transform="rotate(-18, 43, 229)"/>
  <line x1="44" y1="236" x2="46" y2="257" stroke="white" stroke-width="3.5" stroke-linecap="round" transform="rotate(-18, 43, 229)"/>
  <line x1="52" y1="234" x2="58" y2="254" stroke="white" stroke-width="3.5" stroke-linecap="round" transform="rotate(-18, 43, 229)"/>
  <circle cx="14" cy="262" r="4" fill="white" fill-opacity="0.5"/>
  <circle cx="30" cy="272" r="3" fill="white" fill-opacity="0.4"/>
  <circle cx="52" cy="268" r="2.5" fill="white" fill-opacity="0.3"/>
</svg>
